# xmcd
#
# Track frame offsets:
#	150
#	28205
#	53360
#	94247
#	115770
#	131497
#	147695
#	182080
#	207532
#	231370
#	290317
#
# Disc length: 4140 seconds
#
# Revision: 6
# Processed by: cddbd v1.5.2PL0 Copyright (c) Steve Scherf et al.
# Submitted via: EasyCDDAExtractor 15.3.0.1
#
DISCID=a5102a0b
DTITLE=Yolandita Monge - En Vivo
DYEAR=2000
DGENRE=Latin
TTITLE0=Mala Sangre (No Podran Conmigo)
TTITLE1=Me Dijeron
TTITLE2=Medley Del Ayer (Vida, Recuerdame, Estoy Celosa, Amor Mio, Vete De Aqu
TTITLE2=i, Dime Por Que, Cierra Los Ojos Y Juntos Recordemos, Si, Perdoname Ot
TTITLE2=ra Vez, Tanto Amor)
TTITLE3=Como Puedes
TTITLE4=Celos
TTITLE5=Como Lluvia De Los Cielos
TTITLE6=Medley Vivencias (Debil, Este Amor Que Hay Que Callar, Acariciame, Qui
TTITLE6=tame Ese Hombre Del Corazon)
TTITLE7=Sobrevivire 
TTITLE8=Me Sorprendio La Luna
TTITLE9=Medley Los Amores (El Poder Del Amor, El Amor, Cuando Termina Un Amor)
TTITLE10=Susususubir
EXTD=
EXTT0=
EXTT1=
EXTT2=
EXTT3=
EXTT4=
EXTT5=
EXTT6=
EXTT7=
EXTT8=
EXTT9=
EXTT10=
PLAYORDER=
